<?xml version="1.0" encoding="UTF-8" standalone="no"?>
<!DOCTYPE svg PUBLIC "-//W3C//DTD SVG 1.1//EN" "http://www.w3.org/Graphics/SVG/1.1/DTD/svg11.dtd">
<!-- Created with Vectornator (http://vectornator.io/) -->
<svg height="100%" stroke-miterlimit="10" style="fill-rule:nonzero;clip-rule:evenodd;stroke-linecap:round;stroke-linejoin:round;" version="1.1" viewBox="0 0 1024 1024" width="100%" xml:space="preserve" xmlns="http://www.w3.org/2000/svg" xmlns:xlink="http://www.w3.org/1999/xlink">
<defs/>
<clipPath id="ArtboardFrame">
<rect height="1024" width="1024" x="0" y="0"/>
</clipPath>
<g clip-path="url(#ArtboardFrame)" id="Ebene-1">
<path d="M4.61853e-14 456.72C4.61853e-14 266.529 103.702 153.596 257.646 100.035C270.936 95.4109 281.656 98.8088 300.372 93.6431C319.087 88.4773 321.005 81.8076 332.509 79.3718C388.364 67.5445 448.847 61.9583 512 61.9583C595.48 61.9583 674.295 71.7192 743.922 92.7537C768.258 100.106 769.76 114.014 791.659 124.185C821.339 137.971 870.315 149.226 894.682 168.469C975.129 232.002 1024 326.156 1024 456.72C1024 739.49 794.77 968.72 512 968.72C229.23 968.72 4.61853e-14 739.49 4.61853e-14 456.72Z" fill="#bc1818" fill-rule="nonzero" opacity="1" stroke="none"/>
<path d="M257.306 242.97C257.306 242.97 138.586 167.022 180.412 134.828C194.599 123.908 218.656 113.601 257.646 100.035C270.936 95.4109 281.656 98.8088 300.372 93.6431C319.087 88.4773 321.005 81.8076 332.509 79.3718C388.364 67.5445 448.847 61.9583 512 61.9583C595.48 61.9583 451.448 161.21 521.075 182.244C545.411 189.596 567.186 220.198 567.186 220.198C567.186 220.198 547.91 200.954 572.278 220.198C619.715 257.661 618.253 175.03 660.99 152.722C690.73 137.199 774.506 166.624 774.506 220.198C774.506 335.073 656.483 426.153 640.389 417.058C616.867 403.765 710.417 324.646 542.522 324.646C391.987 324.646 310.51 243.367 310.51 243.367L257.306 242.97Z" fill="#e32323" fill-rule="nonzero" opacity="1" stroke="none"/>
<path d="M521.075 595.991L522.315 595.991L522.315 782.717L521.075 782.717L521.075 595.991Z" fill="#e32323" fill-rule="nonzero" opacity="1" stroke="#ffffff" stroke-linecap="butt" stroke-linejoin="round" stroke-width="20"/>
<path d="M399.731 218.623C399.731 209.405 431.473 189.706 422.442 148.961C406.929 78.9694 311.723 61.9583 311.723 61.9583C311.723 61.9583 419.359 37.7506 462.86 86.914C497.753 126.35 504.511 156.369 512 156.369C521.566 156.369 523.073 184.409 543.701 165.06C562.453 147.471 563.283 118.602 588.234 91.7682C641.732 34.2312 774.506 61.9583 774.506 61.9583C774.506 61.9583 648.42 92.6835 620.181 165.129C608.05 196.252 624.269 214.442 624.269 218.623C624.269 221.386 711.561 229.27 732.17 259.733C764.597 307.664 735.883 385.117 735.883 385.117C735.883 385.117 713.878 313.272 681.08 283.709C644.545 250.778 596.506 259.928 589.834 263.488C569.652 274.257 542.22 280.878 512 280.878C499.552 280.878 449.588 289.513 413.751 252.988C399.944 238.916 383.822 231.906 337.113 233.67C290.404 235.435 226.914 260.046 226.914 260.046C226.914 260.046 292.264 204.384 353.937 205.63C394.091 206.442 399.731 221.627 399.731 218.623Z" fill="#237f22" fill-rule="nonzero" opacity="1" stroke="none"/>
<path d="M149.005 498.896L149.293 498.931L128.698 669.087L128.411 669.052L149.005 498.896Z" fill="#e32323" fill-rule="nonzero" opacity="1" stroke="#ffffff" stroke-linecap="butt" stroke-linejoin="round" stroke-width="20"/>
<path d="M874.752 516.601L875.037 516.552L904.051 685.477L903.766 685.526L874.752 516.601Z" fill="#e32323" fill-rule="nonzero" opacity="1" stroke="#ffffff" stroke-linecap="butt" stroke-linejoin="round" stroke-width="20"/>
<path d="M-24.3265 450.166C-24.3265 450.166 38.1155 547.934 188.378 612.057C272.387 647.906 456.547 689.354 548.348 689.354C640.724 689.354 771.099 668.88 863.035 621.881C1025.88 538.63 1066.48 346.557 1066.48 346.557" fill="none" opacity="1" stroke="#9e1717" stroke-linecap="butt" stroke-linejoin="round" stroke-width="20"/>
<g opacity="1">
<path d="M842.512 479.158C841.326 479.696 839.487 480.086 836.994 480.328C834.501 480.569 832.686 480.948 831.547 481.465C829.128 482.564 825.563 484.356 820.853 486.84C816.143 489.324 812.554 491.127 810.087 492.247C808.237 493.088 805.605 494.571 802.191 496.696C798.777 498.822 796.145 500.304 794.294 501.145C793.773 501.382 792.97 501.631 791.888 501.893C790.805 502.155 790.003 502.404 789.481 502.641C786.208 504.128 783.351 503.5 780.911 500.757C779.588 499.346 778.01 496.614 776.179 492.56C771.159 481.446 770.132 471.135 773.098 461.625C774.449 457.275 779.289 448.179 787.617 434.337C792.29 426.581 795.172 420.875 796.265 417.217C798.276 410.785 797.893 404.492 795.113 398.34C793.734 395.287 790.537 393.463 785.522 392.866C781.09 392.293 777.213 392.761 773.892 394.269C769.527 396.252 765.946 399.401 763.15 403.718L756.593 416.353C755.286 418.901 754.015 420.456 752.782 421.016C747.895 423.236 744.568 422.39 742.802 418.479C741.789 416.237 741.818 413.896 742.888 411.455C746.069 403.687 749.172 397.708 752.196 393.518C756.45 387.619 761.614 383.291 767.687 380.533C775.372 377.042 783.176 376.026 791.097 377.487C799.967 379.149 806.072 383.676 809.411 391.069C811.609 395.934 812.946 400.73 813.423 405.457C813.9 410.184 813.504 414.876 812.235 419.534C810.615 425.443 806.755 432.973 800.654 442.125C794.277 451.804 790.346 458.734 788.861 462.915C786.073 470.792 786.493 478.62 790.121 486.399L804.167 478.381C813.966 473.24 821.025 469.69 825.342 467.729C828.948 466.091 832.644 465.159 836.43 464.934C841.454 464.664 844.634 466.008 845.97 468.965C846.81 470.825 846.918 472.773 846.294 474.81C845.671 476.846 844.41 478.296 842.512 479.158Z" fill="#ffffff" fill-rule="nonzero" opacity="1" stroke="#ffffff" stroke-linecap="butt" stroke-linejoin="round" stroke-width="7"/>
<path d="M901.7 457.533C888.226 463.653 876.048 463.149 865.167 456.02C863.688 455.025 862.658 453.884 862.076 452.596C861.236 450.736 861.244 448.792 862.1 446.764C862.957 444.737 864.311 443.303 866.161 442.463C868.106 441.579 870.43 441.788 873.134 443.089C877.027 445 879.808 446.093 881.477 446.37C885.509 447.068 890.182 446.21 895.495 443.797C903.703 440.069 909.089 433.828 911.654 425.076C914.11 416.717 913.432 408.317 909.619 399.875C906.473 392.911 902.781 387.776 898.543 384.47C893.124 380.321 887.355 379.637 881.234 382.416C876.158 384.722 872.319 387.299 869.718 390.148C867.651 392.409 865.917 395.467 864.514 399.323L860.603 411.36C859.485 414.455 857.834 416.498 855.652 417.489C853.754 418.351 851.834 418.404 849.892 417.648C847.949 416.892 846.547 415.56 845.685 413.652C845.254 412.698 843.716 408.281 841.071 400.4C835.898 384.643 832.245 374.404 830.112 369.682C829.358 368.012 828.118 366.377 826.394 364.774C824.67 363.172 823.592 361.894 823.161 360.94C821.847 358.031 823.681 355.444 828.662 353.182C829.611 352.751 831.084 352.182 833.081 351.477C835.078 350.771 836.55 350.202 837.499 349.771C840.251 348.522 844.335 346.551 849.753 343.861C855.17 341.17 859.255 339.2 862.006 337.95C863.287 337.368 865.254 336.533 867.906 335.443C870.559 334.353 872.526 333.517 873.807 332.935C874.708 332.526 875.932 331.754 877.478 330.621C879.025 329.487 880.225 328.727 881.079 328.339C882.929 327.498 884.878 327.446 886.926 328.183C888.975 328.92 890.408 330.194 891.227 332.007C893.64 337.349 889.224 342.574 877.98 347.681C876.509 348.349 874.637 349.141 872.365 350.059C870.092 350.976 868.718 351.543 868.243 351.758L856.314 357.436L844.448 363.256C845.418 365.403 848.127 373.743 852.577 388.276C856.728 380.125 864.212 373.593 875.029 368.68C885.467 363.939 895.29 364.421 904.5 370.125C912.295 374.976 918.627 382.792 923.496 393.571C929.313 406.449 930.359 418.764 926.633 430.516C922.773 442.731 914.463 451.736 901.7 457.533Z" fill="#ffffff" fill-rule="nonzero" opacity="1" stroke="#ffffff" stroke-linecap="butt" stroke-linejoin="round" stroke-width="7"/>
</g>
<g opacity="1">
<path d="M456.601 561.057C455.302 561.155 453.441 560.89 451.017 560.261C448.593 559.632 446.758 559.365 445.511 559.46C442.861 559.661 438.898 560.12 433.621 560.837C428.344 561.553 424.355 562.014 421.653 562.219C419.627 562.374 416.646 562.863 412.71 563.687C408.773 564.512 405.792 565.001 403.766 565.155C403.194 565.198 402.355 565.157 401.249 565.032C400.142 564.906 399.303 564.865 398.732 564.908C395.146 565.181 392.679 563.61 391.329 560.196C390.57 558.417 390.027 555.309 389.699 550.873C388.799 538.711 391.374 528.674 397.424 520.76C400.187 517.139 407.855 510.257 420.428 500.115C427.48 494.434 432.146 490.064 434.428 487.004C438.526 481.653 440.325 475.611 439.827 468.878C439.58 465.538 437.204 462.727 432.698 460.445C428.731 458.385 424.929 457.493 421.292 457.77C416.512 458.134 412.068 459.863 407.96 462.957L397.464 472.574C395.361 474.518 393.634 475.542 392.283 475.645C386.932 476.052 384.098 474.115 383.781 469.836C383.599 467.382 384.43 465.193 386.273 463.269C391.928 457.065 396.894 452.514 401.173 449.617C407.194 445.537 413.529 443.244 420.18 442.738C428.597 442.098 436.275 443.823 443.214 447.914C450.974 452.52 455.153 458.868 455.752 466.958C456.146 472.282 455.756 477.246 454.581 481.849C453.406 486.452 451.423 490.723 448.632 494.662C445.083 499.656 438.872 505.404 430 511.905C420.688 518.807 414.617 523.966 411.787 527.383C406.464 533.824 404.171 541.321 404.908 549.873L420.853 547.164C431.822 545.7 439.67 544.788 444.398 544.428C448.347 544.127 452.138 544.521 455.772 545.61C460.583 547.081 463.109 549.434 463.348 552.67C463.499 554.706 462.932 556.573 461.646 558.271C460.361 559.97 458.68 560.898 456.601 561.057Z" fill="#ffffff" fill-rule="nonzero" opacity="1" stroke="#ffffff" stroke-linecap="butt" stroke-linejoin="round" stroke-width="7"/>
<path d="M519.616 561.065C504.86 562.188 493.595 557.534 485.822 547.102C484.775 545.66 484.199 544.234 484.095 542.825C483.944 540.789 484.619 538.967 486.12 537.356C487.62 535.746 489.384 534.864 491.41 534.71C493.54 534.548 495.652 535.542 497.744 537.692C500.745 540.823 502.982 542.805 504.454 543.638C508.001 545.678 512.685 546.476 518.504 546.033C527.493 545.349 534.694 541.337 540.107 533.997C545.284 526.99 547.53 518.867 546.847 509.629C546.283 502.008 544.578 495.918 541.733 491.358C538.068 485.601 532.883 482.978 526.181 483.487C520.621 483.91 516.131 485.013 512.71 486.796C509.993 488.209 507.314 490.487 504.672 493.627L496.867 503.59C494.754 506.112 492.503 507.465 490.113 507.646C488.035 507.805 486.213 507.195 484.648 505.818C483.083 504.441 482.224 502.709 482.069 500.621C481.992 499.578 482.064 494.901 482.285 486.591C482.835 470.015 482.919 459.144 482.537 453.977C482.401 452.15 481.799 450.188 480.73 448.091C479.66 445.994 479.087 444.424 479.009 443.38C478.774 440.196 481.384 438.397 486.839 437.982C487.879 437.903 489.457 437.875 491.575 437.897C493.693 437.92 495.271 437.891 496.31 437.812C499.324 437.583 503.836 437.135 509.848 436.468C515.86 435.8 520.372 435.352 523.386 435.123C524.789 435.016 526.923 434.906 529.788 434.793C532.654 434.68 534.788 434.57 536.191 434.463C537.178 434.388 538.592 434.084 540.434 433.55C542.275 433.016 543.664 432.714 544.599 432.643C546.625 432.489 548.474 433.109 550.145 434.504C551.815 435.899 552.724 437.588 552.871 439.572C553.304 445.417 547.363 448.809 535.049 449.746C533.438 449.868 531.408 449.97 528.958 450.051C526.508 450.133 525.024 450.193 524.504 450.233L511.35 451.47L498.208 452.863C498.381 455.212 498.063 463.975 497.253 479.154C503.95 472.923 513.222 469.357 525.069 468.456C536.499 467.586 545.56 471.411 552.252 479.929C557.908 487.162 561.172 496.677 562.045 508.472C563.087 522.565 559.842 534.49 552.308 544.249C544.49 554.396 533.593 560.002 519.616 561.065Z" fill="#ffffff" fill-rule="nonzero" opacity="1" stroke="#ffffff" stroke-linecap="butt" stroke-linejoin="round" stroke-width="7"/>
</g>
<g opacity="1">
<path d="M159.805 452.234C145.461 449.545 136.216 441.023 132.069 426.668C128.961 415.633 128.923 402.024 131.957 385.84C134.523 372.157 140.016 360.83 148.438 351.859C158.367 341.364 169.936 337.354 183.148 339.831C195.557 342.157 204.239 349.255 209.193 361.124C213.469 371.401 214.374 383.121 211.906 396.285C207.943 417.423 201.619 432.661 192.933 441.997C184.247 451.334 173.204 454.746 159.805 452.234ZM180.516 353.477C171.74 351.832 163.945 354.986 157.13 362.939C151.439 369.589 147.695 377.703 145.9 387.281C142.99 402.805 142.905 414.852 145.644 423.425C148.384 431.997 153.953 437.071 162.352 438.645C172.355 440.52 180.597 436.156 187.078 425.551C191.584 418.191 194.978 408.424 197.26 396.25C199.657 383.464 199.459 373.512 196.666 366.395C193.873 359.278 188.49 354.972 180.516 353.477Z" fill="#ffffff" fill-rule="nonzero" opacity="1" stroke="#ffffff" stroke-linecap="butt" stroke-linejoin="round" stroke-width="7"/>
</g>
<path d="M351.163 396.077L472.996 396.077L472.996 583.991L351.163 583.991L351.163 396.077Z" fill="#bc1818" fill-rule="nonzero" opacity="1" stroke="none"/>
</g>
<g id="Ebene-2"/>
</svg>
